<svg xmlns="http://www.w3.org/2000/svg" viewBox="0 0 64 37.59"><defs><style>.cls-1{fill:#fff;}</style></defs><g id="Layer_2" data-name="Layer 2"><g id="Capa_1" data-name="Capa 1"><path class="cls-1" d="M36.09,31.49c-.31.78-.63,1.56-.94,2.33-.42,1.06-.85,2.12-1.26,3.19a.53.53,0,0,1-.55.4c-1,0-1,.05-1.36-.83s-.71-1.75-1.06-2.64-.69-1.73-1-2.6c-.12.05-.07.15-.07.22,0,1.84,0,3.68,0,5.52,0,.31-.1.37-.39.36a7.34,7.34,0,0,0-1.24,0c-.4,0-.48-.14-.47-.49,0-1.85,0-3.71,0-5.56,0-1,0-2.08,0-3.11,0-.37.1-.56.49-.56.56,0,1.13,0,1.69,0a.59.59,0,0,1,.62.45c.71,1.79,1.45,3.57,2.18,5.35.08.19.17.37.3.65.18-.39.32-.69.45-1,.69-1.67,1.38-3.34,2-5a.62.62,0,0,1,.68-.44c.5,0,1,0,1.51,0s.62.07.62.62v7.21c0,.5,0,1,0,1.51,0,.32-.12.46-.45.45a11,11,0,0,0-1.15,0c-.39,0-.53-.15-.53-.53,0-1.66,0-3.32,0-5v-.47Z"/><path class="cls-1" d="M0,32.62c0-1.44,0-2.87,0-4.31,0-.42.13-.57.55-.58a22.24,22.24,0,0,1,4.08.11,4.1,4.1,0,0,1,3.5,3.72,6.12,6.12,0,0,1-.58,3.76A4.09,4.09,0,0,1,4.31,37.4a34.67,34.67,0,0,1-3.95.08c-.3,0-.36-.13-.36-.41,0-1.48,0-3,0-4.45Zm2.1,0c0,.84,0,1.68,0,2.53,0,.33.12.45.44.43H3.61a2.27,2.27,0,0,0,2.28-1.76A4.92,4.92,0,0,0,6,31.68a2.15,2.15,0,0,0-2-2.05,11.83,11.83,0,0,0-1.33-.05c-.36,0-.5.1-.49.48C2.12,30.92,2.1,31.78,2.11,32.64Z"/><path class="cls-1" d="M20.57,37.52A4.33,4.33,0,0,1,16,33.09a6,6,0,0,1,.82-3.62,4.55,4.55,0,0,1,4.62-1.79,4.38,4.38,0,0,1,3.61,4.08A8.17,8.17,0,0,1,25,34,4.18,4.18,0,0,1,20.57,37.52Zm-2.36-5.2a3.82,3.82,0,0,0,.61,2.5,2.22,2.22,0,0,0,3.63-.17A4.22,4.22,0,0,0,22.7,31a2.11,2.11,0,0,0-2-1.49,2.16,2.16,0,0,0-2.1,1.15A3.47,3.47,0,0,0,18.21,32.32Z"/><path class="cls-1" d="M12.09,35.27H10.76a.39.39,0,0,0-.45.33c-.15.5-.33,1-.47,1.48a.46.46,0,0,1-.5.4H7.83c-.34,0-.4-.14-.29-.45,1-3,2.06-5.94,3.07-8.91a.55.55,0,0,1,.6-.42l1.95.05c.29,0,.37.19.45.41.51,1.47,1,2.94,1.52,4.41s1,3,1.52,4.41c.15.4,0,.51-.36.5H14.91a.48.48,0,0,1-.54-.41c-.13-.45-.3-.9-.43-1.35a.55.55,0,0,0-.65-.46c-.4,0-.8,0-1.2,0Zm.07-5h-.09c-.26.78-.53,1.55-.79,2.34-.32,1-.31,1,.74,1h.17c1.05,0,1.05,0,.73-1C12.67,31.79,12.42,31,12.16,30.23Z"/><path class="cls-1" d="M48.15,32.76c.59-.7,1.2-1.38,1.77-2.1a1.27,1.27,0,0,1,1.21-.57,11.18,11.18,0,0,0,1.16,0c.13,0,.29,0,.34.13s-.07.22-.14.31L50.6,32.74c-.48.57-.47.56-.05,1.16C51.28,35,52,36,52.73,37.09c.19.27.13.38-.17.39-.6,0-1.19,0-1.78,0a.64.64,0,0,1-.53-.36c-.48-.71-1-1.42-1.43-2.15-.21-.33-.37-.3-.59,0a.83.83,0,0,0-.17.58c0,.51,0,1,0,1.52,0,.3-.07.44-.39.43H46.3c-.26,0-.35-.1-.35-.38,0-2.93,0-5.87,0-8.81,0-.43.15-.6.56-.59s.66,0,1,0,.58.13.57.56c0,1.48,0,3,0,4.45Z"/><path class="cls-1" d="M43.2,36.61c-.7,1.16-1.82,1-2.85.87a1.94,1.94,0,0,1-1.61-1.77c-.15-1.69.76-2.29,2.4-2.58.45-.08.91-.12,1.36-.18s.67-.1.69-.54a.9.9,0,0,0-.74-.78,1.3,1.3,0,0,0-1.4.56.42.42,0,0,1-.44.23l-1.29-.1c-.3,0-.32-.2-.23-.44a2.59,2.59,0,0,1,2-1.73,4.13,4.13,0,0,1,3.1.39,2,2,0,0,1,1.07,1.83c0,1.53,0,3.06,0,4.58,0,.42-.15.57-.55.54a6.61,6.61,0,0,0-.89,0c-.4,0-.63-.1-.57-.55a2.26,2.26,0,0,0,0-.26Zm-1.52-.55a1.37,1.37,0,0,0,1.52-1.57c0-.14,0-.3-.22-.25a9.38,9.38,0,0,0-1.73.38.73.73,0,0,0-.49.76.78.78,0,0,0,.6.65A1.39,1.39,0,0,0,41.68,36.06Z"/><path class="cls-1" d="M56.67,34.37H54.76c-.48,0-.57.14-.42.61a1.56,1.56,0,0,0,2.64.44.55.55,0,0,1,.52-.26c.4,0,.8.07,1.2.08s.38.18.3.46a2.32,2.32,0,0,1-1.14,1.37,4.37,4.37,0,0,1-3.78.17,3,3,0,0,1-1.88-2.51,4.44,4.44,0,0,1,.45-3,3.5,3.5,0,0,1,3.89-1.56A3.16,3.16,0,0,1,59.08,33c0,.3.05.59.07.89s-.13.48-.48.47Zm-1-1.36h1.06c.38,0,.42-.17.31-.48a1.4,1.4,0,0,0-1.35-.89,1.5,1.5,0,0,0-1.36,1c-.08.26,0,.4.28.4Z"/><path class="cls-1" d="M61.57,31a2.09,2.09,0,0,1,1.88-1c.37,0,.57.15.54.57a9.37,9.37,0,0,0,0,1.06c0,.32-.09.37-.4.3a1.57,1.57,0,0,0-1.5.32,1.27,1.27,0,0,0-.44.88,15.75,15.75,0,0,0,0,2.66c0,.46-.08.91,0,1.38,0,.19-.11.29-.3.3H59.86c-.34,0-.36-.24-.36-.5,0-1.21,0-2.43,0-3.64,0-.92,0-1.84,0-2.76,0-.34.12-.49.47-.48s.68,0,1,0,.64.13.59.58A1.61,1.61,0,0,0,61.57,31Z"/><polygon class="cls-1" points="18.02 23.24 27.28 19.23 37.61 0 28.53 4.01 18.02 23.24"/><polygon class="cls-1" points="36.37 4.18 40.82 8.64 33.07 23.42 28.44 18.79 36.37 4.18"/><polygon class="cls-1" points="41.71 9.08 37.61 16.74 44.65 16.56 47.5 11.22 41.71 9.08"/></g></g></svg>